<?xml version="1.0" encoding="UTF-8"?>
<!DOCTYPE svg PUBLIC "-//W3C//DTD SVG 1.1//EN" "http://www.w3.org/Graphics/SVG/1.1/DTD/svg11.dtd">
<svg xmlns="http://www.w3.org/2000/svg" version="1.1" width="389px" height="389px" style="shape-rendering:geometricPrecision; text-rendering:geometricPrecision; image-rendering:optimizeQuality; fill-rule:evenodd; clip-rule:evenodd" xmlns:xlink="http://www.w3.org/1999/xlink">
<g><path style="opacity:1" fill="#ecb97b" d="M 130.5,16.5 C 132.527,16.3379 134.527,16.5045 136.5,17C 130.999,30.6722 125.999,44.5056 121.5,58.5C 119.5,58.5 117.5,58.5 115.5,58.5C 120.098,44.3723 125.098,30.3723 130.5,16.5 Z"/></g>
<g><path style="opacity:1" fill="#ecb97b" d="M 144.5,16.5 C 146.604,16.2011 148.604,16.5344 150.5,17.5C 155.799,31.0897 160.799,44.7564 165.5,58.5C 163.396,58.7989 161.396,58.4656 159.5,57.5C 154.201,43.9103 149.201,30.2436 144.5,16.5 Z"/></g>
<g><path style="opacity:1" fill="#ecb97b" d="M 217.5,16.5 C 219.527,16.3379 221.527,16.5045 223.5,17C 217.999,30.6722 212.999,44.5056 208.5,58.5C 206.5,58.5 204.5,58.5 202.5,58.5C 207.098,44.3723 212.098,30.3723 217.5,16.5 Z"/></g>
<g><path style="opacity:1" fill="#ecb97b" d="M 231.5,16.5 C 233.604,16.2011 235.604,16.5344 237.5,17.5C 242.799,31.0897 247.799,44.7564 252.5,58.5C 250.396,58.7989 248.396,58.4656 246.5,57.5C 241.201,43.9103 236.201,30.2436 231.5,16.5 Z"/></g>
<g><path style="opacity:1" fill="#ecb97b" d="M 101.5,78.5 C 103.527,78.3379 105.527,78.5045 107.5,79C 101.999,92.6722 96.9986,106.506 92.5,120.5C 90.5,120.5 88.5,120.5 86.5,120.5C 91.0985,106.372 96.0985,92.3723 101.5,78.5 Z"/></g>
<g><path style="opacity:1" fill="#4c4f69" d="M 130.5,78.5 C 132.527,78.3379 134.527,78.5045 136.5,79C 130.783,92.5956 125.783,106.429 121.5,120.5C 119.5,120.5 117.5,120.5 115.5,120.5C 120.098,106.372 125.098,92.3723 130.5,78.5 Z"/></g>
<g><path style="opacity:1" fill="#ecb97b" d="M 173.5,78.5 C 175.604,78.2011 177.604,78.5344 179.5,79.5C 184.799,93.0897 189.799,106.756 194.5,120.5C 192.396,120.799 190.396,120.466 188.5,119.5C 183.201,105.91 178.201,92.2436 173.5,78.5 Z"/></g>
<g><path style="opacity:1" fill="#ecb97b" d="M 260.5,78.5 C 262.604,78.2011 264.604,78.5344 266.5,79.5C 271.799,93.0897 276.799,106.756 281.5,120.5C 279.396,120.799 277.396,120.466 275.5,119.5C 270.201,105.91 265.201,92.2436 260.5,78.5 Z"/></g>
<g><path style="opacity:1" fill="#ecb97b" d="M 72.5,140.5 C 74.5273,140.338 76.5273,140.505 78.5,141C 72.9986,154.672 67.9986,168.506 63.5,182.5C 61.5,182.5 59.5,182.5 57.5,182.5C 62.0985,168.372 67.0985,154.372 72.5,140.5 Z"/></g>
<g><path style="opacity:1" fill="#4c4f69" d="M 101.5,140.5 C 103.527,140.338 105.527,140.505 107.5,141C 101.783,154.596 96.7829,168.429 92.5,182.5C 90.5,182.5 88.5,182.5 86.5,182.5C 91.0985,168.372 96.0985,154.372 101.5,140.5 Z"/></g>
<g><path style="opacity:1" fill="#ecb97b" d="M 202.5,140.5 C 204.604,140.201 206.604,140.534 208.5,141.5C 213.799,155.09 218.799,168.756 223.5,182.5C 221.396,182.799 219.396,182.466 217.5,181.5C 212.201,167.91 207.201,154.244 202.5,140.5 Z"/></g>
<g><path style="opacity:1" fill="#ecb97b" d="M 289.5,140.5 C 291.604,140.201 293.604,140.534 295.5,141.5C 300.799,155.09 305.799,168.756 310.5,182.5C 308.396,182.799 306.396,182.466 304.5,181.5C 299.201,167.91 294.201,154.244 289.5,140.5 Z"/></g>
<g><path style="opacity:1" fill="#ecb97b" d="M 43.5,202.5 C 45.5273,202.338 47.5273,202.505 49.5,203C 43.9986,216.672 38.9986,230.506 34.5,244.5C 32.5,244.5 30.5,244.5 28.5,244.5C 33.0985,230.372 38.0985,216.372 43.5,202.5 Z"/></g>
<g><path style="opacity:1" fill="#4c4f69" d="M 72.5,202.5 C 74.5273,202.338 76.5273,202.505 78.5,203C 72.7829,216.596 67.7829,230.429 63.5,244.5C 61.5,244.5 59.5,244.5 57.5,244.5C 62.0985,230.372 67.0985,216.372 72.5,202.5 Z"/></g>
<g><path style="opacity:1" fill="#4c4f69" d="M 101.5,202.5 C 103.527,202.338 105.527,202.505 107.5,203C 101.783,216.596 96.7829,230.429 92.5,244.5C 90.5,244.5 88.5,244.5 86.5,244.5C 91.0985,230.372 96.0985,216.372 101.5,202.5 Z"/></g>
<g><path style="opacity:1" fill="#ecb97b" d="M 231.5,202.5 C 233.604,202.201 235.604,202.534 237.5,203.5C 242.799,217.09 247.799,230.756 252.5,244.5C 250.396,244.799 248.396,244.466 246.5,243.5C 241.201,229.91 236.201,216.244 231.5,202.5 Z"/></g>
<g><path style="opacity:1" fill="#ecb97b" d="M 318.5,202.5 C 320.604,202.201 322.604,202.534 324.5,203.5C 329.799,217.09 334.799,230.756 339.5,244.5C 337.396,244.799 335.396,244.466 333.5,243.5C 328.201,229.91 323.201,216.244 318.5,202.5 Z"/></g>
<g><path style="opacity:1" fill="#4c4f69" d="M 43.5,264.5 C 45.5273,264.338 47.5273,264.505 49.5,265C 43.7829,278.596 38.7829,292.429 34.5,306.5C 32.5,306.5 30.5,306.5 28.5,306.5C 33.0985,292.372 38.0985,278.372 43.5,264.5 Z"/></g>
<g><path style="opacity:1" fill="#4c4f69" d="M 72.5,264.5 C 74.5273,264.338 76.5273,264.505 78.5,265C 72.7829,278.596 67.7829,292.429 63.5,306.5C 61.5,306.5 59.5,306.5 57.5,306.5C 62.0985,292.372 67.0985,278.372 72.5,264.5 Z"/></g>
<g><path style="opacity:1" fill="#ecb97b" d="M 260.5,264.5 C 262.604,264.201 264.604,264.534 266.5,265.5C 271.799,279.09 276.799,292.756 281.5,306.5C 279.396,306.799 277.396,306.466 275.5,305.5C 270.201,291.91 265.201,278.244 260.5,264.5 Z"/></g>
<g><path style="opacity:1" fill="#ecb97b" d="M 347.5,264.5 C 349.604,264.201 351.604,264.534 353.5,265.5C 358.799,279.09 363.799,292.756 368.5,306.5C 366.396,306.799 364.396,306.466 362.5,305.5C 357.201,291.91 352.201,278.244 347.5,264.5 Z"/></g>
<g><path style="opacity:1" fill="#ecb97b" d="M 289.5,326.5 C 291.604,326.201 293.604,326.534 295.5,327.5C 300.799,341.09 305.799,354.756 310.5,368.5C 308.396,368.799 306.396,368.466 304.5,367.5C 299.201,353.91 294.201,340.244 289.5,326.5 Z"/></g>
</svg>
