<svg xmlns="http://www.w3.org/2000/svg" width="389" height="389" style="shape-rendering:geometricPrecision;text-rendering:geometricPrecision;image-rendering:optimizeQuality;fill-rule:evenodd;clip-rule:evenodd"><path fill="#ecb97b" d="M131 17h6l-15 42h-6q6-22 15-42m14 0q3-1 6 1l15 41-6-1zm73 0h6l-15 42h-6q6-22 15-42m14 0q3-1 6 1l15 41-6-1zM102 79h6l-15 42h-6q6-22 15-42" style="opacity:1"/><path fill="#4c4f69" d="M131 79h6q-9 20-15 42h-6q6-22 15-42" style="opacity:1"/><path fill="#ecb97b" d="M174 79q3-1 6 1l15 41-6-1zm87 0q3-1 6 1l15 41-6-1zM73 141h6l-15 42h-6q6-22 15-42" style="opacity:1"/><path fill="#4c4f69" d="M102 141h6q-9 20-15 42h-6q6-22 15-42" style="opacity:1"/><path fill="#ecb97b" d="M203 141q3-1 6 1l15 41-6-1zm87 0q3-1 6 1l15 41-6-1zM44 203h6l-15 42h-6q6-22 15-42" style="opacity:1"/><path fill="#4c4f69" d="M73 203h6q-9 20-15 42h-6q6-22 15-42m29 0h6q-9 20-15 42h-6q6-22 15-42" style="opacity:1"/><path fill="#ecb97b" d="M232 203q3-1 6 1l15 41-6-1zm87 0q3-1 6 1l15 41-6-1z" style="opacity:1"/><path fill="#4c4f69" d="M44 265h6q-9 20-15 42h-6q6-22 15-42m29 0h6q-9 20-15 42h-6q6-22 15-42" style="opacity:1"/><path fill="#ecb97b" d="M261 265q3-1 6 1l15 41-6-1zm87 0q3-1 6 1l15 41-6-1zm-58 62q3-1 6 1l15 41-6-1z" style="opacity:1"/></svg>